<svg width="264" height="46" viewBox="0 0 264 46" fill="none" xmlns="http://www.w3.org/2000/svg">
<g filter="url(#filter0_d_1409_1055)">
<rect x="189" y="12" width="64" height="23" fill="#F1AC43"/>
</g>
<g filter="url(#filter1_d_1409_1055)">
<path d="M13.5156 24.7969V31.8281H11.1719V15.4219H13.5156V22.4531H14.6875V21.2812H15.8594V20.1094H17.0312V18.9375H18.2031V17.7656H19.375V16.5938H20.5469V15.4219H22.8906V17.7656H21.7188V18.9375H20.5469V20.1094H19.375V21.2812H18.2031V22.4531H17.0312V24.7969H18.2031V25.9688H19.375V27.1406H20.5469V28.3125H21.7188V29.4844H22.8906V31.8281H20.5469V30.6562H19.375V29.4844H18.2031V28.3125H17.0312V27.1406H15.8594V25.9688H14.6875V24.7969H13.5156ZM27.2181 17.7656V22.4531H33.0775V21.2812H34.2494V18.9375H33.0775V17.7656H27.2181ZM27.2181 24.7969V31.8281H24.8744V15.4219H34.2494V16.5938H35.4213V17.7656H36.5931V22.4531H35.4213V23.625H34.2494V24.7969H27.2181ZM46.78 22.4531V23.625H45.6081V24.7969H44.4363V25.9688H43.2644V27.1406H42.0925V28.3125H40.9206V31.8281H38.5769V15.4219H40.9206V24.7969H42.0925V23.625H43.2644V22.4531H44.4363V21.2812H45.6081V20.1094H46.78V18.9258H47.9519V15.4219H50.2956V31.8281H47.9519V22.4531H46.78ZM54.6348 31.8281H52.2911V17.7656H52.2794V15.4219H54.6231V17.7656H55.8067V18.9375H56.9786V20.1094H59.3223V18.9375H60.4942V17.7656H61.6778V15.4336H64.0216V17.7773H64.0098V31.8281H61.6661V21.2812H60.4942V22.4531H59.3223V24.7969H56.9786V22.4531H55.8067V21.2812H54.6348V31.8281ZM74.185 22.4531V23.625H73.0131V24.7969H71.8413V25.9688H70.6694V27.1406H69.4975V28.3125H68.3256V31.8281H65.9819V15.4219H68.3256V24.7969H69.4975V23.625H70.6694V22.4531H71.8413V21.2812H73.0131V20.1094H74.185V18.9258H75.3569V15.4219H77.7006V31.8281H75.3569V22.4531H74.185ZM82.0281 24.7969V31.8281H79.6844V15.4219H82.0281V22.4531H89.0594V15.4219H91.4031V31.8281H89.0594V24.7969H82.0281ZM95.7306 24.7969H102.762V21.2812H101.59V20.1094H100.418V18.9375H98.0744V20.1094H96.9025V21.2812H95.7306V24.7969ZM95.7306 31.8281H93.3869V20.1094H94.5587V18.9375H95.7306V17.7656H96.9025V16.5938H98.0744V15.4219H100.418V16.5938H101.59V17.7656H102.762V18.9375H103.934V20.1094H105.106V31.8281H102.762V27.1406H95.7306V31.8281ZM111.777 17.7656V29.4844H110.605V30.6562H109.433V31.8281H107.089V29.4844H108.261V28.3125H109.433V15.4219H119.98V31.8281H117.636V17.7656H111.777ZM130.167 29.4844V28.3125H131.339V25.9688H130.167V24.7969H124.308V29.4844H130.167ZM131.339 22.4531V23.625H132.511V24.7969H133.683V29.4844H132.511V30.6562H131.339V31.8281H121.964V15.4219H124.308V22.4531H131.339ZM138.01 24.7969V31.8281H135.666V15.4219H138.01V22.4531H145.041V15.4219H147.385V31.8281H145.041V24.7969H138.01ZM157.572 29.4844V28.3125H158.744V25.9688H157.572V24.7969H151.712V29.4844H157.572ZM158.744 22.4531V23.625H159.916V24.7969H161.087V29.4844H159.916V30.6562H158.744V31.8281H149.369V15.4219H151.712V22.4531H158.744ZM165.775 31.8281H163.431V15.4219H165.775V31.8281ZM175.962 22.4531V23.625H174.79V24.7969H173.618V25.9688H172.446V27.1406H171.274V28.3125H170.102V31.8281H167.759V15.4219H170.102V24.7969H171.274V23.625H172.446V22.4531H173.618V21.2812H174.79V20.1094H175.962V18.9258H177.134V15.4219H179.477V31.8281H177.134V22.4531H175.962ZM172.446 15.4219V14.25H171.274V13.0781H170.102V11.9062H172.446V13.0781H174.79V11.9062H177.134V13.0781H175.962V14.25H174.79V15.4219H172.446Z" fill="#F1AC43"/>
<path d="M203.367 17.7656H198.679V18.9375H197.508V28.3125H198.679V29.4844H203.379V28.3242H204.539V18.9375H203.367V17.7656ZM197.508 16.5938V15.4219H204.539V16.5938H205.711V17.7656H206.883V29.4844H205.722V30.668H204.539V31.8281H197.508V30.6562H196.336V29.4844H195.164V17.7656H196.336V16.5938H197.508ZM211.222 31.8281H208.878V17.7656H208.866V15.4219H211.21V17.7656H212.394V18.9375H213.565V20.1094H215.909V18.9375H217.081V17.7656H218.265V15.4336H220.608V17.7773H220.597V31.8281H218.253V21.2812H217.081V22.4531H215.909V24.7969H213.565V22.4531H212.394V21.2812H211.222V31.8281ZM226.084 29.4961H230.772V28.3242H231.944V27.1641H234.288V29.5078H233.116V30.668H231.944V31.8398H224.913V30.6562H223.741V29.4844H222.569V17.7656H223.741V16.5938H224.913V15.4219H231.944V16.5938H233.116V17.7656H234.288V20.1094H231.944V18.9375H230.772V17.7656H226.084V18.9375H224.913V28.3125H226.084V29.4961ZM238.615 24.7969V31.8281H236.271V15.4219H238.615V22.4531H239.787V21.2812H240.959V20.1094H242.131V18.9375H243.303V17.7656H244.474V16.5938H245.646V15.4219H247.99V17.7656H246.818V18.9375H245.646V20.1094H244.474V21.2812H243.303V22.4531H242.131V24.7969H243.303V25.9688H244.474V27.1406H245.646V28.3125H246.818V29.4844H247.99V31.8281H245.646V30.6562H244.474V29.4844H243.303V28.3125H242.131V27.1406H240.959V25.9688H239.787V24.7969H238.615Z" fill="black"/>
</g>
<defs>
<filter id="filter0_d_1409_1055" x="178" y="1" width="86" height="45" filterUnits="userSpaceOnUse" color-interpolation-filters="sRGB">
<feFlood flood-opacity="0" result="BackgroundImageFix"/>
<feColorMatrix in="SourceAlpha" type="matrix" values="0 0 0 0 0 0 0 0 0 0 0 0 0 0 0 0 0 0 127 0" result="hardAlpha"/>
<feOffset/>
<feGaussianBlur stdDeviation="5.5"/>
<feColorMatrix type="matrix" values="0 0 0 0 0.945098 0 0 0 0 0.67451 0 0 0 0 0.262745 0 0 0 1 0"/>
<feBlend mode="normal" in2="BackgroundImageFix" result="effect1_dropShadow_1409_1055"/>
<feBlend mode="normal" in="SourceGraphic" in2="effect1_dropShadow_1409_1055" result="shape"/>
</filter>
<filter id="filter1_d_1409_1055" x="0.171875" y="0.90625" width="258.818" height="41.9336" filterUnits="userSpaceOnUse" color-interpolation-filters="sRGB">
<feFlood flood-opacity="0" result="BackgroundImageFix"/>
<feColorMatrix in="SourceAlpha" type="matrix" values="0 0 0 0 0 0 0 0 0 0 0 0 0 0 0 0 0 0 127 0" result="hardAlpha"/>
<feOffset/>
<feGaussianBlur stdDeviation="5.5"/>
<feColorMatrix type="matrix" values="0 0 0 0 0.945098 0 0 0 0 0.796078 0 0 0 0 0.262745 0 0 0 1 0"/>
<feBlend mode="normal" in2="BackgroundImageFix" result="effect1_dropShadow_1409_1055"/>
<feBlend mode="normal" in="SourceGraphic" in2="effect1_dropShadow_1409_1055" result="shape"/>
</filter>
</defs>
</svg>
