<svg
                        class="state"
                        width="100%"
                        height="100%"
                        viewBox="0 0 1326 885"
                        fill="none"
                        xmlns="http://www.w3.org/2000/svg"
                      >
                        <path
                          d="M248.283 5.35706L252.391 2.67908L256.5 0L270.907 0.249023L285.314 0.498047L292.739 19.998L300.164 39.498L300.832 40.1471L301.5 40.796L320.43 42.91L339.36 45.024L339.507 45.261L339.655 45.498L383.467 107.998L427.28 170.498L428.955 172.285L430.63 174.072L474.065 172.97L517.5 171.868L539.5 165.263L561.5 158.658L571.27 154.328L581.041 149.998H596.522H612.003L621.625 141.308L631.247 132.618L681.608 121.42L731.97 110.222L734.435 109.604L736.899 108.985L737.588 115.076L738.277 121.167L739.54 121.652L740.803 122.137L824.152 106.594L907.5 91.052L979 79.973L1050.5 68.895L1098.5 61.9301L1146.5 54.9651L1148.99 54.7311L1151.47 54.498L1154.67 60.4851L1157.86 66.473L1157.36 66.9851L1156.86 67.498L1034.18 84.498L911.5 101.498L908.541 107.734L905.581 113.97L874.581 114.234L843.581 114.498L841.714 123.998L839.846 133.498L837.673 135.226L835.5 136.954L815.25 136.976L795 136.998V138.448V139.897L801 162.998L807 186.099V187.003V187.907L801.595 197.107L796.189 206.307L800.845 213.283L805.5 220.26L808.619 231.379L811.737 242.498L811.119 243.187L810.5 243.876L802.416 246.851L794.332 249.825L769.416 253.058L744.5 256.29L744.252 256.476L744.003 256.662L767.063 304.435L790.124 352.208L789.569 352.762L789.015 353.316L763.258 357.648L737.5 361.981L719.119 366.781L700.739 371.582L687.869 393.878L675 416.174V417.008V417.842L716.75 439.061L758.5 460.28L781.259 476.633L804.019 492.986L825.759 498.372L847.5 503.759L873.5 504.933L899.5 506.106L1004.5 520.077L1109.5 534.048L1112.57 534.6L1115.63 535.152L1120.94 516.825L1126.26 498.498L1126.6 498.113L1126.94 497.727L1129.4 499.339L1131.86 500.951L1141.1 485.725L1150.35 470.498L1150.6 470.154L1150.85 469.81L1238.43 530.068L1326 590.325V591.227V592.13L1313.91 612.064L1301.82 631.998H1300.98H1300.13L1261.43 606.432L1222.73 580.866L1221.85 581.743L1220.98 582.62L1144.66 698.053L1068.34 813.486L1056.8 817.992L1045.26 822.498L1043.69 823.825L1042.11 825.153L964.804 769.729L887.5 714.305L754.5 644.043L621.5 573.782L615.835 570.706L610.171 567.63L606.835 570.135L603.5 572.64L602.294 573.351L601.087 574.062L587.544 557.161L574 540.26V539.534V538.808L571.942 532.034L569.885 525.26L536.692 501.657L503.5 478.055L502.875 477.776L502.25 477.498L481.125 502.398L460 527.298L460.025 527.898L460.05 528.498L466.608 533.498L473.165 538.498L475.333 540.206L477.5 541.913L469.523 549.956L461.547 557.998L456.523 558.019L451.5 558.039L419.5 582.517L387.5 606.995L386.641 608.282L385.781 609.568L414.392 666.783L443.003 723.998H443.576H444.148L460.526 714.498L476.904 704.998H477.547H478.191L480.941 706.956L483.691 708.914L494.595 705.431L505.5 701.949L536 697.568L566.5 693.188L579 690.08L591.5 686.971L593.328 686.558L595.156 686.144L594.828 704.774L594.5 723.404L607.5 726.058L620.5 728.712L619 729.294L617.5 729.877L585.465 737.438L553.429 744.998H551.739H550.048L535.538 738.498L521.027 731.998H520.405H519.784L513.5 736.998L507.216 741.998L505.358 741.997H503.5L485.5 738.479L467.5 734.961L449.387 741.563L431.273 748.165L393.887 777.887L356.5 807.609L338.5 820.148L320.5 832.687L304.5 842.706L288.5 852.725L286.448 853.791L284.395 854.857L269.473 860.458L254.55 866.059L243.282 872.029L232.014 877.998H217.982H203.95L197 881.498L190.05 884.998H188.132H186.215L169.857 881.933L153.5 878.867L140.5 873.234L127.5 867.6L106 839.742L84.5 811.885L76 801.218L67.5 790.552L50.269 777.219L33.038 763.887L23.477 749.965L13.917 736.043L6.95801 720.404L0 704.765V623.857V542.948L3.38202 536.223L6.76501 529.498L18.291 497.998L29.817 466.498L32.847 412.998L35.877 359.498L34.887 343.998L33.896 328.498L43.927 299.202L53.957 269.906L67.728 253.159L81.5 236.412L101.785 205.455L122.069 174.498L142.933 158.998L163.796 143.498L169.523 122.498L175.25 101.498L175.875 99.916L176.5 98.3351L191.5 84.999L206.5 71.6631L224.592 54.833L242.685 38.0031L245.484 21.6801L248.283 5.35706Z"
                          fill="#F1AC43"
                        />
                      </svg>