<svg
                        class="state"
                        width="100%"
                        height="100%"
                        viewBox="0 0 848 434"
                        fill="none"
                        xmlns="http://www.w3.org/2000/svg"
                      >
                        <path
                          d="M755.196 9.63202L761.348 4.87402L767.5 0.116028L768.578 0.0579834L769.656 0L790.828 23.024L812 46.048V46.823V47.599L780.444 65.985L748.888 84.371L748.403 85.157L747.917 85.943L773.48 119.444L799.042 152.946L799.512 154.223L799.983 155.5L804.476 202.902L808.97 250.304L809.416 250.749L809.861 251.195L820.49 249.385L831.119 247.575L832.044 249.037L832.969 250.5L832.985 278.214L833 305.928L839.534 301.831L846.068 297.734L846.504 298.17L846.94 298.606L847.22 306.98L847.5 315.353L719 334.071L590.5 352.789L523.178 364.49L455.857 376.19L455.397 375.731L454.938 375.271L454.321 370.064L453.705 364.857L451.602 365.344L449.5 365.83L387.541 379.064L325.581 392.298L315.541 400.627L305.5 408.957L292.19 408.978L278.88 409L265.702 414.627L252.524 420.255L235.012 425.169L217.5 430.083L180.009 431.967L142.518 433.851L142.418 433.676L142.318 433.5L97.566 370L52.813 306.5L51.656 305.311L50.5 304.122L32.547 302.295L14.594 300.469L7.34399 282.485L0.0930176 264.5L0.0469971 263.409L0 262.318L5.32996 261.125L10.66 259.933L14.1331 258.974L17.606 258.015L13.958 238.257L10.3101 218.5L12.905 216.877L15.5 215.253L22.897 210.996L30.295 206.74L29.636 188.62L28.9771 170.5L28.343 155.38L27.709 140.261L37.605 139.053L47.5 137.846L131.5 127.655L215.5 117.465L216.132 103.982L216.764 90.5L216.882 86.75L217 83H247.011H277.022L279.719 77.5L282.417 72H283.535H284.653L312.951 78.042L341.249 84.085L342.875 82.733L344.5 81.381L350.791 75.808L357.081 70.235L365.384 67.101L373.687 63.967L382.249 53.202L390.812 42.437L391.525 37.683L392.238 32.928L394.911 31.546L397.583 30.1639L405.839 52.603L414.095 75.041L394.652 99.677L375.208 124.313L392.706 143.907L410.204 163.5L414.563 165.359L418.923 167.218L419.211 175.359L419.5 183.5L421.5 183.296L423.5 183.092L449 179.516L474.5 175.939L477.209 175.399L479.918 174.859L480.209 167.18L480.5 159.5L496.5 157.869L512.5 156.237L523.774 151.605L535.048 146.972L552.774 134.195L570.5 121.418L587.197 109.668L603.894 97.918L609.882 100.94L615.87 103.963L630.899 95.923L645.929 87.8831L652.966 74.692L660.003 61.5L664.719 58L669.435 54.5L673.043 51.792L676.652 49.083L687.436 62.153L698.221 75.223L699.985 73.3621L701.748 71.5L728.472 40.566L755.196 9.63202Z"
                          fill="#F1AC43"
                        />
                      </svg>