<svg
                        class="state"
                        width="100%"
                        height="100%"
                        viewBox="0 0 1096 966"
                        fill="none"
                        xmlns="http://www.w3.org/2000/svg"
                      >
                        <path
                          d="M435.056 10.5L436.092 5.28101L437.129 0.0620117L445.513 6.771L453.896 13.481L477.698 15.625L501.5 17.769L525.591 27.384L549.681 37L551.591 37.03L553.5 37.061L579.289 32.339L605.079 27.617L671.789 31.858L738.5 36.098L742 36.913L745.5 37.728L777 59.265L808.5 80.803L834.169 107.706L859.838 134.61L927.268 186.916L994.698 239.222L999.066 248.135L1003.43 257.048L1029.6 282.493L1055.76 307.938L1075.88 346.147L1096 384.356L1095.94 421.428L1095.87 458.5L1093.68 478.239L1091.48 497.979L1081.99 507.584L1072.5 517.189L1049.5 537.803L1026.5 558.417L1025.99 559.125L1025.48 559.833L1019.57 581.443L1013.66 603.054L993.552 617.938L973.442 632.821L952.771 664.661L932.101 696.5L917.55 714.356L903 732.212L902.974 732.356L902.948 732.5L891.724 764.35L880.5 796.2L881.91 813.85L883.32 831.5L880.107 882.432L876.893 933.363L876.242 934.432L875.59 935.5L864.226 950.748L852.861 965.996L850.931 964.963L849 963.93V962.868V961.807L853.092 948.828L857.183 935.85L856.833 935.5L856.483 935.15L833.742 932.848L811 930.546L811.028 929.023L811.057 927.5L817.919 896.5L824.782 865.5L824.56 865.252L824.338 865.005L734.984 866.484L645.629 867.962L645.065 867.42L644.5 866.877L615.966 733.188L587.433 599.5L567.466 598.966L547.5 598.431L540 595.072L532.5 591.712L524.542 591.106L516.584 590.5L515.008 585.04L513.431 579.579L486.489 574.323L459.547 569.067L388.872 560.534L318.198 552H317.099H316V557V562L314.25 562.012L312.5 562.024L292 559.471L271.5 556.917L269.25 556.44L267 555.962V550.184V544.406L136.75 533.63L6.5 522.853L3.25 522.315L0 521.777V512.889V504L2.75 504.046L5.5 504.092L48.5 507.887L91.5 511.682L91.884 511.374L92.267 511.066L96.241 472.783L100.214 434.5L100.857 433.885L101.5 433.271L118.5 435.075L135.5 436.88L137.25 436.94L139 437V452.961V468.923L142.75 469.912L146.5 470.901L173 477.492L199.5 484.083L201.221 484.599L202.941 485.116L203.221 471.866L203.5 458.616L209.333 456.886L215.165 455.156L216.501 453.33L217.836 451.503L218.247 452.002L218.657 452.5L221.181 456L223.706 459.5L219.9 473.5L216.094 487.5L216.331 488.352L216.568 489.203L238.483 471.352L260.399 453.5L261.45 453.783L262.5 454.067L279.5 461.192L296.5 468.317L296.864 468.606L297.228 468.895L290.6 499.6L283.972 530.305L284.273 530.606L284.574 530.907L363.537 536.015L442.5 541.122L493 550.065L543.5 559.008L544.205 559.004L544.909 559L545.415 555.75L545.921 552.5L546.552 544.678L547.184 536.857L548.579 537.392L549.974 537.927L564.094 548.571L578.214 559.215L579.484 557.857L580.754 556.5L591.396 539.782L602.038 523.064L602.613 521.565L603.188 520.067L599.594 515.68L596 511.294V510.647V510H602.876H609.751L620.516 491.973L631.28 473.947L630.811 473.478L630.342 473.008L604.421 462.086L578.5 451.164L577.172 438.332L575.843 425.5L575.172 424.87L574.5 424.241L469 366.462L363.5 308.684L362 308.318L360.5 307.952L339.09 316.343L317.68 324.734L289.59 304.198L261.5 283.663L255.582 279.354L249.663 275.046L244.456 278.025L239.249 281.005L238.006 279.507L236.763 278.01L238.545 275.255L240.326 272.5L249.284 259.516L258.243 246.532L258.657 245.45L259.072 244.369L243.823 236.508L228.574 228.646L232.537 226.897L236.5 225.148L237.75 225.074L239 225L238.994 208.75L238.988 192.5L231.902 183.786L224.816 175.071L250.975 138.036L277.133 101H283.483H289.833L292.721 92.25L295.609 83.5L304.055 77.801L312.5 72.102L313.664 72.301L314.828 72.5L329.164 90.5L343.5 108.5L344 60.728L344.5 12.956L359.305 23.478L374.109 34H402.536H430.962L431.466 31.75L431.97 29.5L433.513 20L435.056 10.5Z"
                          fill="#F1AC43"
                        />
                      </svg>