<svg
                        class="state"
                        width="100%"
                        height="100%"
                        viewBox="0 0 907 795"
                        fill="none"
                        xmlns="http://www.w3.org/2000/svg"
                      >
                        <path
                          d="M721.497 17.5L733.696 8.78299L745.896 0.0650024L746.332 0.0329895L746.767 0L749.056 2.14999L751.345 4.29999L759.607 2.51501L767.87 0.730011L773.62 7.07901L779.369 13.427L778.632 14.07L777.896 14.712L752.896 34.681L727.896 54.65L714.201 65.713L700.506 76.776L710.898 85.478L721.29 94.18L720.785 109.34L720.28 124.5L731.855 137.476L743.429 150.452L791.163 227.866L838.896 305.28L839.253 306.21L839.609 307.14L833.894 304.25L828.18 301.36L809.038 305.656L789.896 309.952L775.876 309.976L761.856 310L752.751 319.25L743.646 328.5L733.397 345.732L723.148 362.964L700.389 363.232L677.629 363.5L687.272 391.298L696.915 419.097L700.868 422.416L704.822 425.734L699.359 427.302L693.896 428.869L675.186 433.594L656.475 438.319L656.93 439.055L657.385 439.792L699.447 467.146L741.509 494.5L742.769 494.248L744.029 493.997L786.962 480.587L829.896 467.177L847.226 465.002L864.557 462.827L864.942 463.212L865.326 463.597L867.861 508.377L870.396 553.157V555.078V557H888.604H906.812L902.354 561.59L897.896 566.181L883.396 577.453L868.896 588.724L862.396 600.899L855.896 613.074L846.491 618.155L837.087 623.237L830.397 620L823.706 616.764L786.801 642.838L749.896 668.912L737.896 673.428L725.896 677.943L703.896 680.604L681.896 683.265L681.681 683.431L681.466 683.597L682.521 690.375L683.576 697.153L683.119 697.61L682.662 698.067L671.279 700.027L659.896 701.987L658.646 701.993L657.396 702V699.626V697.252L649.633 692.156L641.871 687.06L631.383 675.337L620.896 663.614L619.605 661.83L618.314 660.045L636.158 637.773L654.002 615.5L654.711 614.325L655.421 613.15L642.237 580.825L629.052 548.5L628.906 548.266L628.761 548.032L615.828 551.549L602.896 555.066L599.646 556.111L596.396 557.155V565.446V573.736L591.352 580.269L586.309 586.803L579.23 588.401L572.151 590L571.023 589.97L569.896 589.941L563.755 596.683L557.615 603.425L528.255 596.636L498.896 589.848L496.865 589.37L494.834 588.893L491.422 595.947L488.01 603H455.203H422.396L422.358 604.75L422.32 606.5L421.443 622.332L420.566 638.163L420.068 638.661L419.57 639.16L325.233 651.069L230.896 662.978L230.014 662.989L229.132 663L229.784 685.75L230.435 708.5L231.006 719L231.576 729.5L221.496 735.886L211.416 742.272L211.946 745.886L212.477 749.5L214.37 763.482L216.262 777.465L215.311 778.052L214.361 778.64L204.846 780.432L195.332 782.224L195.807 783.862L196.282 785.5L196.953 790.25L197.623 795H186.01H174.396V757.855V720.71L152.219 679.605L130.043 638.5L104.812 613C104.812 613 86.6891 599.572 79.582 587.5C77.547 584.043 75.006 578.304 75.006 578.304L70.4301 569.108L51.413 552.489L32.396 535.87V535.59V535.31L55.896 515.468L79.396 495.626V494.973V494.32L62.468 469.459L45.541 444.598L52.968 439.092L60.396 433.585V432.016V430.447L36.637 407.379L12.877 384.311L7.57703 353.905L2.27698 323.5L1.13898 316.781L0 310.062L0.503967 309.559L1.00702 309.056L11.952 311.958L22.896 314.861L43.305 322.93L63.714 331L64.805 330.93L65.896 330.86L133.281 249.149L200.666 167.437L264.539 137.08L328.412 106.724L344.138 90.2299L359.865 73.736L365.561 79.929L371.256 86.1209L375.296 83.447L379.336 80.774L384.206 86.137L389.076 91.5L400.268 103.958L411.46 116.416L393.71 134.186L375.961 151.956L379.428 155.569L382.896 159.181L431.396 206.959L479.896 254.737L507.396 252.076L534.896 249.416L564.166 229.635L593.436 209.854L595.821 205.177L598.206 200.5L627.471 173L656.736 145.5L661.872 145.206L667.008 144.912L682.927 128.969L698.847 113.026L694.317 108.263L689.787 103.5L676.397 89L663.007 74.5L658.01 69.275L653.013 64.049L653.605 63.458L654.197 62.866L659.263 65.433L664.33 68H665.502H666.675L694.036 51.424L721.396 34.849L721.446 26.174L721.497 17.5Z"
                          fill="#F1AC43"
                        />
                      </svg>