<svg class="state" width="100%" height="100%" viewBox="0 0 826 985" fill="none" xmlns="http://www.w3.org/2000/svg">
  <path d="M74.448 6.345L75.435 3.172L76.422 0L83.62 2.449L90.818 4.899L94.635 5.929L98.452 6.958L97.853 9.684L97.255 12.409L118.036 15.775L138.818 19.141L139.09 19.348L139.361 19.555L134.34 33.286L129.318 47.016V47.295V47.573L146.306 51.959L163.294 56.345L162.886 57.845L162.478 59.345L159.312 73.095L156.146 86.845H151.964H147.781L140.942 121.196L134.102 155.547L135.347 180.446L136.593 205.345L127.344 234.15L118.094 262.955L118.456 263.263L118.818 263.572L146.318 259.745L173.818 255.917L175.888 255.881L177.957 255.845L180.942 271.595L183.927 287.345L184.912 287.165L185.897 286.985L326.789 220.93L467.68 154.874L467.861 155.11L468.041 155.345L501.008 222.912L533.975 290.479L583.482 368.912L632.988 447.345L659.501 494.845L686.013 542.345L689.823 559.595L693.632 576.845H704.065H714.499L719.965 581.515L725.431 586.184L718.379 593.284L711.326 600.384L714.822 605.575L718.318 610.766V611.779V612.791L716.229 617.091L714.14 621.391L726.12 646.675L738.099 671.96L738.622 672.482L739.144 673.005L741.762 671.289L744.38 669.574L744.737 669.96L745.093 670.345L766.799 712.169L788.504 753.992L788.137 754.36L787.769 754.727L767.918 749.745L748.067 744.763L747.785 745.054L747.503 745.345L757.03 797.345L766.558 849.345L785.898 868.845L805.239 888.345L799.721 892.311L794.204 896.277L793.176 897.516L792.147 898.756L808.733 923.234L825.318 947.712V948.692V949.672L812.568 960.419L799.818 971.166L790.111 977.629L780.405 984.092L779.111 983.592L777.818 983.092L757.818 968.296L737.818 953.5L717.818 937.746L697.818 921.991L672.818 894.896L647.818 867.801L613.318 845.13L578.818 822.459L505.719 817.194L432.62 811.929L406.736 816.707L380.853 821.485L356.835 811.856L332.818 802.227L310.318 800.431L287.818 798.634L282.394 794.49L276.971 790.345L270.697 785.345L264.423 780.345L246.3 756.845L228.178 733.345L184.327 684.345L140.476 635.345L126.868 618.345L113.26 601.345L97.064 587.563L80.867 573.78L67.634 515.063L54.401 456.345L45.361 397.345L36.32 338.345L18.245 260.441L0.17099 182.537L0.0849915 180.941L0 179.345L14.16 135.503L28.32 91.662L45.202 71.98L62.083 52.299L68.266 29.322L74.448 6.345Z" fill="#F1AC43"/>
</svg>
