<svg width="2190" height="2137" viewBox="0 0 2190 2137" fill="none" xmlns="http://www.w3.org/2000/svg">
<path fill-rule="evenodd" clip-rule="evenodd" d="M230.008 40L217.885 54.135L212.854 60H330.9L331.994 55.25L335.16 41.5L335.568 40H230.008ZM305.354 20L307.021 15.441L312.043 1.71008L311.771 1.50305L311.5 1.29602L303.498 0H244.035L240.947 11.4771L238.654 20H305.354ZM318.273 80H199.006L192.545 100H314.291L318.273 80ZM310.309 120H186.086L179.625 140H306.898L306.783 137.702L310.309 120ZM307.898 160H173.166L172.682 161.5L172.768 163.096L172.854 164.692L176.404 180H308.9L308.029 162.601L307.898 160ZM548.709 180L591.367 160H651.701L661.459 180H548.709ZM305.262 200H181.045L185.686 220H298.838L300.025 216.305L305.262 200ZM463.393 220L499.471 203.085L506.051 200H671.217L673.689 205.067L680.975 220H463.393ZM332.648 240H351.018L353.623 253.75L354.809 260H194.965L190.928 242.596L190.326 240H292.416L290.775 245.11L291.139 245.418L291.5 245.727L319 241.9L332.648 240ZM199.605 280L204.246 300H723.93L711.307 280H199.605ZM700.492 260L690.734 240H420.732L378.074 260H700.492ZM736.555 320H208.887L209.002 320.5L211.99 340H749.178L736.555 320ZM761.803 360H215.055L218.043 379.5L218.119 380H774.426L761.803 360ZM787.051 400H221.184L224.248 420H799.674L787.051 400ZM1707.22 440H1708.72L1714.22 446.079L1719.97 452.427L1719.24 453.07L1718.5 453.712L1710.63 460H1662.08L1662.1 456.5L1674.3 447.783L1685.19 440H1688.44L1689.66 441.15L1691.95 443.3L1700.21 441.515L1707.22 440ZM811.531 440H227.42L231.928 460H822.695L811.531 440ZM833.857 480H236.436L240.316 497.218L240.943 500H845.021L833.857 480ZM1319.6 520H1320.14L1324.81 525.137L1329.68 530.5L1338.21 540H1274.47L1284.74 529.23L1293.54 520H1307.15L1311.86 525.121L1315.9 522.447L1319.6 520ZM856.184 520H245.451L249.957 540H862.119L858.695 524.5L856.184 520ZM888.352 560H258.326L269.746 569.718L281.828 580H886.529L891.061 575.439L898.113 568.339L892.646 563.67L888.352 560ZM888.545 600H299.15L299.551 600.5L313.158 617.5L315.396 620H894.619L886.822 603.546L888.545 600ZM1130.08 620L1141.27 606.437L1154.81 600H1325.35L1345.65 620H1130.08ZM904.094 640H333.295L351.193 660H921.668L917.775 652.5L917.42 652.115L917.062 651.729L914.443 653.444L911.826 655.16L911.305 654.637L910.781 654.115L904.094 640ZM1097.1 660L1113.59 640H1365.95L1372 645.959L1386.25 660H1097.1ZM932.047 680H369.09L386.988 700H942.426L939.48 694.324L932.047 680ZM1064.11 700L1073.88 688.149L1080.61 680H1406.55L1420.5 693.737L1448 691.076L1475.5 688.416L1487.95 680H1739.87L1752.2 700H1064.11ZM952.807 720H404.33L418.982 739L419.754 740H922.477L920.186 727.5L920.467 727.209L920.75 726.918L940.6 731.9L960.451 736.882L960.818 736.515L961.186 736.147L952.807 720ZM1031.12 740L1047.62 720H1764.53L1776.86 740H1031.12ZM979.027 760L983.908 761.93L1004.32 770L1005.41 769.93L1006.5 769.86L1014.63 760H1691.63L1684.25 767.5L1676.81 780H945.932L942.881 762.5L942.457 760H979.027ZM926.141 760H435.178L437.105 762.5L443.379 767.5L449.652 772.5L455.076 776.645L459.467 780H929.805L929.713 779.5L926.141 760ZM933.469 800H687.438L751.5 804.614L774.914 820H937.133L933.469 800ZM947.67 840H805.35L820.5 849.956L829.768 860H967.508L958.58 851L947.67 840ZM991.27 860L977.24 846.379L970.67 840H1631.24L1637.52 858.097L1639.79 860H991.27ZM965.584 880H848.221L866.674 900H977.762L964.828 880.911L965.584 880ZM997.312 900L986.145 883.598L990.998 880H1599.85L1630.6 900H997.312ZM991.314 920H890.625L910.5 935.655L916.373 940H988.305L998 931.827V930.847V929.867L991.314 920ZM1013.63 940L1020 934.626V933.973V933.32L1010.93 920H1661.35L1682.11 933.5L1683.37 933.248L1684.63 932.997L1726.24 920H1806.91L1808.05 940H1013.63ZM962.469 960H943.408L950.5 965.247L951.793 965.747L953.088 966.247L962.469 960ZM888.701 940L862.92 920H251.707L250.975 921.036L237.58 940H888.701ZM226.385 960H914.484L927.268 969.916L940.268 980H238.99L238.988 975.5L231.902 966.786L226.385 960ZM238.998 1000L239 1008L237.75 1008.07L236.5 1008.15L232.537 1009.9L228.574 1011.65L243.822 1019.51L244.777 1020H991.832L966.051 1000H238.998ZM1001.76 1000L1011.03 1008.11L1015.61 1017.3L1016.95 1020H1531.39L1531.96 1019.27L1537 1012.74V1004.45V1000H1001.76ZM1574.76 1000L1582.84 1019.82L1582.91 1020H1819.44L1824 1016.45L1838.5 1005.18L1842.96 1000.59L1843.53 1000H1574.76ZM1904.78 1000L1890.47 1016.57L1887.51 1020H1972.12L1953.73 1000H1904.78ZM1935.33 980H1924.48L1929.5 976.116L1930.58 976.058L1931.66 976L1935.33 980ZM1945.85 1040H1870.23L1863.75 1047.5L1861.98 1049.36L1860.22 1051.22L1850.96 1040H1820.67L1814.97 1050.69L1810 1060H1911.53L1942.44 1041.98L1945.85 1040ZM1923.7 1080H1757.25L1749.2 1085.67L1732.5 1097.42L1728.92 1100H1938.96L1935.48 1095.44L1923.7 1080ZM1954.22 1120H1701.17L1697.05 1122.97L1685.77 1127.6L1674.5 1132.24L1658.5 1133.87L1642.5 1135.5L1642.33 1140H1962.79L1961.98 1131.5L1961.51 1130.22L1961.04 1128.95L1954.22 1120ZM1964.68 1160H1191.47L1191.64 1164.62L1192.2 1180H1966.58L1966.48 1178.9L1964.68 1160ZM1968.48 1200H1173.33L1175.96 1214.26L1177.02 1220H1970.37L1968.48 1200ZM1994.98 1240H1162.07L1162.09 1240.5L1169.34 1258.48L1169.96 1260H1994.99L1994.98 1254.21L1994.98 1240ZM1998.07 1280H2009.12L2009.22 1282.98L2009.5 1291.35L1950.14 1300H1227.15L1214.81 1282.5L1213.66 1281.31L1212.5 1280.12L1211.3 1280H1995L1995 1281.93L1998.07 1280ZM1152.17 1260L1149.31 1252.5L1134.91 1252.25L1120.5 1252L1116.39 1254.68L1112.28 1257.36L1111.83 1260H1152.17ZM1108.4 1280H1159.79L1164.16 1291.5L1164.83 1292.15L1165.5 1292.8L1184.43 1294.91L1203.36 1297.03L1203.51 1297.26L1203.65 1297.5L1205.41 1300H1095.94L1106.69 1290L1108.4 1280ZM1093.82 1260L1095.88 1241.5L1095.88 1240H592.352L604.422 1245.09L630.342 1256.01L630.811 1256.48L631.279 1256.95L629.457 1260H1093.82ZM617.514 1280H1091.59L1091.48 1280.98L1081.99 1290.58L1072.69 1300H600.676L599.594 1298.68L596 1294.29V1293.65V1293H602.875H609.75L617.514 1280ZM295.479 1260L297.229 1251.9L296.863 1251.61L296.5 1251.32L279.5 1244.19L269.498 1240H256.102L238.482 1254.35L231.549 1260H295.479ZM218.949 1260L219.9 1256.5L223.705 1242.5L221.902 1240H208.947L203.5 1241.62L203.221 1254.87L203.113 1260H218.949ZM171.021 1260L146.5 1253.9L142.75 1252.91L139 1251.92V1240H97.8789L96.2402 1255.78L95.8027 1260H171.021ZM93.7266 1280H291.16L290.6 1282.6L286.844 1300H0V1295.89V1287L2.75 1287.05L5.5 1287.09L48.5 1290.89L91.5 1294.68L91.8848 1294.37L92.2676 1294.07L93.7266 1280ZM177.484 1320L267 1327.41V1333.18V1338.96L269.25 1339.44L271.5 1339.92L272.166 1340H316V1335H317.1H318.197L359.604 1340H532.16L493 1333.06L442.5 1324.12L378.766 1320H177.484ZM547.172 1320L546.553 1327.68L545.922 1335.5L545.414 1338.75L545.219 1340H575.277L564.094 1331.57L549.975 1320.93L548.578 1320.39L547.557 1320H547.172ZM593.168 1320L591.396 1322.78L580.754 1339.5L580.285 1340H1028.08L1049.5 1320.8L1050.4 1320H593.168ZM1074.44 1320L1070.5 1323.67L1055.5 1337L1052.13 1340H1233.45L1219.43 1320H1074.44ZM1241.24 1320L1255.34 1340H1688L1752.5 1328.79L1812.84 1320H1241.24ZM1920.68 1320L1914.5 1320.9L1843 1331.98L1791.21 1340H1872.92L1898.18 1336.5L2017.25 1320H1920.68ZM1772.42 1360H1680.62L1604.8 1374.14L1603.54 1373.65L1602.28 1373.17L1601.59 1367.08L1600.9 1360.99L1598.44 1361.61L1595.97 1362.22L1545.61 1373.42L1516.02 1380H1704.93L1705.71 1376L1707.58 1366.5L1738.58 1366.24L1769.58 1365.97L1772.42 1360ZM1661.1 1400H1478.22L1476 1402H1460.52H1445.04L1435.27 1406.33L1425.5 1410.66L1403.5 1417.27L1394.39 1420H1666.3L1665 1415L1661.1 1400ZM1670.95 1440H977.223L965.785 1457.46L964.119 1460H1661.32L1660.19 1458.31L1665.6 1449.11L1670.95 1440ZM1671.67 1480H951.014L945.5 1488.41L935.973 1500H1663.3L1666.42 1498.85L1674.5 1495.88L1675.12 1495.19L1675.74 1494.5L1672.62 1483.38L1671.67 1480ZM1613.47 1520H919.525L917.957 1521.91L911.764 1540H1623.13L1613.47 1520ZM1632.78 1560H904.916L898.068 1580H1642.44L1632.78 1560ZM1652.09 1600H899.143L899.877 1611.5L899.396 1620H1578.46L1583.12 1618.78L1601.5 1613.98L1627.26 1609.65L1653.02 1605.32L1653.57 1604.76L1654.12 1604.21L1652.09 1600ZM1555.26 1640H898.264L897.131 1660H1543.72L1551.87 1645.88L1555.26 1640ZM1558.98 1680H895.998L894.865 1700H1598.33L1580.75 1691.06L1558.98 1680ZM1633.24 1720H893.268L885.949 1740H1357.34L1366.25 1729.5L1366.88 1729.78L1367.5 1730.06L1381.48 1740H1661.08L1645.26 1728.64L1633.24 1720ZM1777.72 1760H1409.61L1433.88 1777.26L1434.72 1780H1928.03L1868.5 1772.08L1777.72 1760ZM1981.71 1780L1984.94 1768.83L1987.5 1760H2070.35L2099.42 1780H1981.71ZM2128.49 1800H1444.2L1451.54 1809.16L1460.23 1820H1473.68L1474.17 1819.63L1474.85 1820H2157.55L2128.49 1800ZM2186.62 1840H2097.53L2125.43 1858.43L2127.8 1860H2180.38L2190 1844.13V1843.23V1842.33L2186.62 1840ZM2168.25 1880H2158.07L2164.13 1884H2164.97H2165.82L2168.25 1880ZM2068.2 1860L2081.42 1840H1512.41L1550.27 1860H2068.2ZM1588.13 1880H2054.98L2041.75 1900H1625.99L1618.5 1896.04L1588.13 1880ZM1250.83 1860L1251.5 1859L1276.33 1840H864V1860H1250.83ZM864 1880H1259L1269 1900H864V1880ZM864 1920V1940H1289L1279 1920H864ZM1663.85 1920L1701.7 1940H2015.31L2028.53 1920H1663.85ZM2002.08 1960H1739.56L1751.5 1966.31L1770.6 1980H1988.86L2002.08 1960ZM1975.64 2000H1798.49L1826.39 2020H1962.41L1975.64 2000ZM1949.19 2040H1854.29L1882.18 2060H1935.97L1949.19 2040ZM1219.94 2060L1220.5 2059.61L1245.17 2040H928.199L931.5 2042.55L940 2053.22L945.402 2060H1219.94ZM960.936 2080H1191.23L1184.5 2084.69L1168.5 2094.71L1160.05 2100H976.371L970 2091.74L960.936 2080ZM992.418 2120L1004.5 2125.24L1017.5 2130.87L1033.86 2133.94L1050.21 2137H1052.13H1054.05L1061 2133.5L1067.95 2130H1081.98H1096.01L1107.28 2124.03L1114.89 2120H992.418ZM902.352 2020H1270.33L1295.27 2000.17L1295.73 2000H886.127L887.477 2001.97L897.037 2015.89L902.352 2020ZM874.338 1980H1481L1471.5 1978.06L1458.5 1975.41L1458.77 1960H1350.56L1347.69 1960.92L1346.4 1960H1335.73L1324.53 1966.5L1308.15 1976H1307.58H1307L1299 1960H865.438L870.957 1972.41L874.338 1980ZM1451.37 1940H1459.12L1459.16 1938.15L1457.33 1938.56L1455.5 1938.97L1451.37 1940ZM864 1820H1302.48L1315.5 1810.04L1320.52 1810.02L1325.55 1810L1333.52 1801.96L1335.46 1800H864V1820ZM871.314 1780H1324.03L1324.03 1779.9L1324 1779.3L1340.37 1760H878.633L871.314 1780ZM859.566 1740H850.516L853.092 1731.83L856.82 1720H874.473L864.227 1733.75L859.566 1740ZM877.926 1700L879.188 1680H817.809L813.381 1700H877.926ZM822.236 1660H880.449L881.711 1640H642.393L644.5 1649.88L645.064 1650.42L645.629 1650.96L734.984 1649.48L824.338 1648L824.561 1648.25L824.781 1648.5L822.236 1660ZM638.123 1620H882.973L883.32 1614.5L882.162 1600H633.855L638.123 1620ZM629.586 1580H880.564L880.5 1579.2L887.266 1560H625.318L629.586 1580ZM621.049 1540H894.314L901.361 1520H616.781L621.049 1540ZM612.512 1500H915.396L917.551 1497.36L931.693 1480H608.242L612.512 1500ZM603.975 1460H944.762L952.771 1447.66L957.744 1440H599.705L603.975 1460ZM595.438 1420H970.729L973.441 1415.82L993.553 1400.94L994.82 1400H591.168L595.438 1420ZM544.305 1380H1015.32L1019.57 1364.44L1020.79 1360H500.211L513.432 1362.58L515.008 1368.04L516.584 1373.5L524.543 1374.11L532.5 1374.71L540 1378.07L544.305 1380ZM1037.48 1360L1033.52 1374.5L1032.02 1380H1261.49L1247.47 1360H1037.48ZM1269.43 1360L1283.53 1380H1473.47L1477.54 1376.63L1487.58 1368.3L1526.43 1360H1269.43ZM1401.18 1400H1297.62L1304.32 1409.5L1304.42 1409.68L1304.52 1409.85L1342.01 1407.97L1379.5 1406.08L1397.01 1401.17L1401.18 1400ZM1275.51 1400H1021.74L1006.93 1411L994.818 1420H1289.53L1275.51 1400ZM2041.29 1740H2003.72L2005.1 1737.73L2014.35 1722.5L2014.6 1722.16L2014.85 1721.81L2041.29 1740ZM99.9551 1220H139L137.25 1219.94L135.5 1219.88L118.5 1218.07L101.5 1216.27L100.857 1216.89L100.215 1217.5L99.9551 1220ZM577.033 1220H1095.91L1095.94 1204.43L1095.95 1200H561.279L574.5 1207.24L575.172 1207.87L575.844 1208.5L577.033 1220ZM524.76 1180H1095.98L1096 1167.36L1092.13 1160H488.242L524.76 1180ZM451.723 1140H1081.6L1075.88 1129.15L1071.07 1120H415.203L451.723 1140ZM337.414 1100H307.102L289.59 1087.2L279.744 1080H1044.52L1055.76 1090.94L1060.54 1100H378.684L363.5 1091.68L362 1091.32L360.5 1090.95L339.09 1099.34L337.414 1100ZM1093.57 1120L1104.37 1140H1170.82L1170.39 1124.75L1170.25 1120H1093.57ZM1187.17 1100H1082.79L1072 1080H1345.6L1265.84 1090.07L1187.17 1100ZM1189.87 1120L1190.34 1131.38L1190.71 1140H1573.38L1572.2 1139.5L1554.79 1120H1189.87ZM1537.45 1100H1323.63L1377.5 1093.46L1378.13 1080H1553.24L1537.45 1100ZM1577.05 1120L1582.47 1126.06L1590.24 1131.16L1598 1136.25V1138.63V1140H1606.23L1611.88 1139.03L1623.27 1137.07L1623.72 1136.61L1624.18 1136.15L1623.12 1129.38L1622.07 1122.6L1622.29 1122.43L1622.5 1122.27L1641.23 1120H1577.05ZM1701.7 1100H1559.61L1558.92 1099.04L1574.18 1080H1730.01L1727.4 1081.84L1701.7 1100ZM1773.07 1060L1771 1059L1764.31 1055.76L1758.31 1060H1590.2L1594.61 1054.5L1595.31 1053.32L1596.03 1052.15L1591.07 1040H1802.95L1796.5 1052.07L1787.1 1057.16L1781.83 1060H1773.07ZM1564.67 1020L1559.58 1006.16L1556.91 1007.55L1554.24 1008.93L1553.53 1013.68L1552.81 1018.44L1551.57 1020H1564.67ZM1535.6 1040H1572.03L1576.1 1051.04L1569.03 1060H1503.35L1504.88 1058.73L1506.5 1057.38L1512.79 1051.81L1519.08 1046.23L1527.38 1043.1L1535.6 1040ZM1500.43 1040H1487.73L1498.22 1042.43L1500.43 1040ZM1429.58 1040H1033.54L1045.42 1052L1053.33 1060H1362.12L1362.92 1045.5L1362.96 1043.75L1363 1042H1395.81H1428.61L1429.58 1040ZM1378.97 1060H1502.85L1474.95 1054.04L1446.65 1048H1445.54H1444.42L1441.72 1053.5L1439.02 1059H1409.01H1379L1378.97 1060ZM1023.95 1060L1003.44 1040.05L1003.41 1040H251.02L249.283 1042.52L240.326 1055.5L238.545 1058.25L237.416 1060H246.246L249.662 1058.05L252.348 1060H1023.95ZM1171.72 1160H1115V1180H1154.03L1162.1 1174.89L1172.18 1168.5L1171.72 1160ZM1154.64 1200H1115V1220H1142.43L1145.45 1219.43L1154.96 1217.64L1155.91 1217.05L1156.87 1216.46L1154.97 1202.48L1154.64 1200ZM1810.31 980H978.871L973 974.87V974.59V974.31L989.947 960H1809.18L1810.31 980ZM265.832 900H843.037L834.17 890.706L823.955 880H343.621L343.5 891.5L334.342 880H291.152L289.832 884H283.482H277.133L265.832 900ZM305.242 860H318.412L314.828 855.5L313.664 855.301L312.5 855.102L305.242 860ZM343.83 860H802.938L777 842.265L773.688 840H344.039L344 843.728L343.83 860ZM344.248 820H549.682L525.592 810.384L501.5 800.769L492.963 800H434L433.514 803L431.971 812.5L431.467 814.75L430.963 817H402.535H374.109L359.305 806.478L350.189 800H344.457L344.248 820ZM544.455 800L553.535 803.64L573.254 800H544.455ZM553.834 820H742.373L742 819.913L738.5 819.098L671.789 814.858L605.078 810.617L579.289 815.339L553.834 820ZM1624.3 820H952.904L949.418 800H1664.92L1663.75 801.964L1640.99 802.232L1618.23 802.5L1624.3 820ZM1727.53 660L1715.2 640H1538.55L1536.43 644.177L1534.04 648.854L1517.55 660H1727.53ZM1559.56 620H1702.87L1690.54 600H1580.84L1568.07 612L1559.56 620ZM1611.52 580H1675.6L1672.46 576.476L1660.88 563.5L1661 560H1631.49L1623.53 567.969L1611.52 580ZM1347.49 560H1238.98L1205.14 576.08L1196.89 580H1327.51L1334.31 573.186L1347.49 560ZM1628.08 540L1617 528L1609.61 520H1646.15L1651.5 524.478L1661.89 533.18L1661.67 540H1628.08ZM1660.64 500H1618.83L1634.64 490.424L1651.85 480H1685.59L1668.5 493.65L1660.64 500ZM641.943 140H634.025L640.361 137.029L640.543 137.265L640.723 137.5L641.943 140Z" fill="#E3C162"/>
</svg>
